<svg version="1.2" xmlns="http://www.w3.org/2000/svg" viewBox="0 0 551 1080" width="551" height="1080">
	<title>model_3-svg</title>
	<style>
		.s0 { fill: #000000 } 
	</style>
	<g id="20d7028e-2f80-4ec8-aa3e-7113197a9b55">
	</g>
	<g id="3b66b596-6069-483c-a0ee-dd5d880deae7">
	</g>
	<g id="Layer">
		<path id="Layer" fill-rule="evenodd" class="s0" d="m285.6 15.2c19.1 0.6 38.2 3.5 56.7 8.2 18.4 4.7 36.3 11.3 53.4 19.7 16.7 8.2 33 18.1 47.8 29.5 7.6 5.9 15 12.2 21.5 19.3 6.3 6.9 11.7 14.5 13.9 23.8 2 9.2 2.1 18.9 2.4 28.2 0.2 10.1 0.3 20.2 0.4 30.3q0.5 30.5 0.8 60.9c0.2 20 0.4 39.9-2.4 59.8-1.3 9.7-3.1 19.4-3.8 29.2-0.7 10.1-0.5 20.2-0.5 30.3q0 3.8 0 7.7 0 2 0 4c0 1 0.2 1 1 1.4q0.8 0.5 1.5 0.9 6.5 3.7 12.5 8c6.6 4.7 14.7 9.9 17.2 18.1 1.3 4.4 1.8 9.3 1.8 13.9 0 1.4 0 3.4-1.1 4.5-1.4 1.4-3.7 0.6-5.3 0-4.5-1.6-8.9-3.8-13.2-5.8q-7.1-3.4-14.2-6.7c-0.2 0.3 0 1.1 0 1.6q0 1.2 0.1 2.4 0.1 2.5 0.2 5 0.1 4.8 0.3 9.5 0.3 9.7 0.7 19.3c1 27 1.7 54 2.4 81.1 0.7 26.5 1.2 53.1 1.2 79.7 0 13.4 0.1 26.9-0.1 40.3q-0.5 20.3-0.9 40.6c-0.3 13.5-0.7 27.1-0.6 40.6 0 13 1.3 25.8 2.5 38.7 2.5 25.8 2.2 52 2 78-0.2 26.6-0.1 53.2-1.4 79.8-0.3 5.8-0.8 11.6-2.3 17.3-1.4 5.2-3.7 10.2-5.9 15.1-5.4 11.7-11 23.2-16.2 35q-3.8 8.6-7.6 17.1c-2.4 5.5-4.7 11.2-8.6 15.9-3.6 4.5-9 7.7-14 10.5q-8.4 4.7-17.2 8.7c-23.9 10.7-49.1 18.4-74.8 23.5-13 2.6-26.1 4.5-39.3 5.2-13.4 0.7-26.9 0.6-40.3 0.1-26-1.2-52.1-6.6-77-14.3-12.6-3.9-25-8.3-37-13.7-5.9-2.6-11.7-5.4-17.3-8.5-5.1-2.8-10.2-5.7-14.3-9.8-4.2-4.1-6.5-9.5-8.9-14.8-2.5-5.6-5-11.3-7.6-17.1-5.4-12.2-11.2-24.3-16.8-36.4-2.6-5.7-5.2-11.4-6.7-17.4-1.6-6.4-2-13-2.2-19.5-0.6-13.3-0.8-26.7-1-40.1-0.2-13.5-0.3-27-0.4-40.4-0.1-13.3-0.1-26.5 0.3-39.7 0.3-12.9 0.9-25.6 2.1-38.3 0.7-6.5 1.4-12.9 1.8-19.3 0.4-6.3 0.4-12.6 0.4-18.8 0-26.5-1-53-1.5-79.5-0.5-26.1-0.1-52.3 0.3-78.5 0.4-26.6 1.1-53.3 1.8-79.9 0.3-13.3 0.9-26.5 1.4-39.8q0.3-9.9 0.7-19.9 0.1-5 0.3-10c0.1-3.1 0.5-6.3 0.3-9.4q-6.6 3.2-13.2 6.3c-4.4 2.1-8.7 4.2-13.2 6-1.6 0.6-4.1 1.7-5.8 0.7-1.6-0.9-1.7-3.5-1.7-5.1 0-4.2 0.5-8.8 1.7-12.8 1-3.8 2.9-6.8 5.6-9.5 3-3.1 6.5-5.6 9.9-8.1 3.8-2.8 7.7-5.4 11.7-7.9q1.6-0.9 3.2-1.9c0.5-0.2 1.8-0.7 2-1.2 0.3-0.6 0-2.3 0-2.9q0-1.9 0-3.7 0-7.7 0-15.3c0-9.8-0.2-19.6-1.4-29.5-1.1-9.8-3.1-19.5-4.1-29.4-1.9-19.9-1.3-39.8-1.1-59.7 0.2-20.4 0.2-40.8 0.7-61.2 0.2-10 0.3-20 0.8-30.1 0.4-9.3 0.8-18.6 4.7-27.2 3.7-8.4 10.3-15.4 16.8-21.6 6.9-6.6 14.3-12.6 22-18.1 15.4-11 31.9-20.7 49.1-28.4 17.1-7.8 34.9-13.9 53.2-18 18.4-4.1 37.1-6.5 55.9-6.7q7-0.1 13.9 0.2zm140.3 408.5c1.9-15.6 4.1-31.3 6.2-46.9 2.1-15.4 4.4-30.9 6-46.4 0.8-7.8 1.4-15.6 1.7-23.4 0.1-4 0.2-8 0-12q0-1.6-0.1-3.1c-0.1-1.2-0.3-1.1-1.3-1.8q-2.2-1.6-4.5-3.1c-12.8-8.3-26.8-14.4-40.9-20-14.3-5.7-28.8-11-43.8-14.6-15.1-3.6-30.5-5.9-45.9-7.4-31.1-3.1-62.6-0.8-93.2 5.5-15 3.1-29.5 7.8-43.8 13.2-14.2 5.3-28.6 11-41.7 18.6-3.2 1.9-6.3 3.9-9.3 5.9q-1.5 0.9-2.9 1.9c-0.2 0.2-1 0.5-1.2 0.8 0 0.1 0.1 0.4 0 0.5-0.2 0.9-0.1 2.1-0.1 3q-0.1 1.5-0.1 3c-0.1 7.7 0.3 15.3 0.9 23 1.3 15.7 3.5 31.4 5.6 47q3.2 23.5 6.3 47c2.1 15.4 3.8 30.9 5.6 46.4 3.7 31.1 7.3 62.2 9.4 93.4 1.1 15.6 1.7 31.3 2.5 46.9q1 23.4 2.1 46.9 2.2 47.1 4.4 94.2c1.5 31.5 2.8 62.9 4.8 94.3 1 15.6 2 31.3 3.4 46.9q1.1 11.8 2.4 23.5c0.9 7.5 1.8 15.1 3.9 22.4 3.6 13 11.3 24.6 22.5 32.4 11.7 8.2 26 12.8 39.9 15.8 15.1 3.3 30.8 4.4 46.2 4.5 15.7 0 31.4-0.4 46.8-2.9 14.4-2.3 29.1-6.4 41.9-13.4 12-6.6 21.4-16.6 26.6-29.3 2.8-6.9 4.3-14.2 5.3-21.5 1-7.7 1.8-15.5 2.6-23.2 1.5-15.6 2.7-31.2 3.7-46.8 1-15.7 2-31.4 2.7-47.2q1.1-23.5 2.2-47.1 2.2-47 4.4-94.1c1.4-31.3 2.5-62.7 4.4-94 1.9-31.4 5.3-62.6 9-93.8q2.7-22.5 5.4-45zm-333.4-278.1c0.8 4.1 2.6 11 7.5 11.9 4.6 0.8 8.6-4.4 10.8-7.7 2.8-4.2 4.8-9 6.8-13.6 4.4-9.9 8.1-20.2 13.4-29.6 2.5-4.4 5.5-8.3 9.2-11.8 3.8-3.6 7.7-6.9 11.2-10.7 3.4-3.6 6.5-7.6 9.4-11.7q2.2-3.1 4.3-6.4c0.4-0.6 3.2-5 3-5.1 0.4 0 0.8-1.6 0.9-2.1 0.1-0.5 0.1-1.2-0.2-1.7-1-1.4-3.8-0.7-5.1-0.4-4.6 0.8-9.1 2.2-13.4 3.8-15.2 5.7-29 14.8-40.6 26.1-5.2 5.1-10.3 10.6-13.6 17.2-3.8 7.3-4.2 15.5-4.5 23.6-0.3 6-0.2 12.2 0.9 18.2zm15.7 634.7c2.7 19.5 5.9 38.9 10.3 58 2.2 9.3 4.6 18.6 7.9 27.6 3.2 8.9 7.7 17.1 12.4 25.3q-0.2-11.5-0.3-23c-0.5-32.7-1.1-65.4-1.8-98.1-0.7-33.1-1-66.3-2.4-99.4-1.3-32.8-3.8-65.6-6.3-98.4q-3.7-48.5-9-96.9c-3.6-32.5-7.6-65-13.3-97.2q-0.6-3.2-1.1-6.4-0.2-1.2-0.5-2.4c0-0.4-0.1-2.3-0.4-2.5-0.4-0.2-2 0-2.5 0q-0.9 0-1.7 0-1.1 0-2.1 0c-0.5 0-2-0.2-2.3 0-0.5 0.4-0.3 3.1-0.3 3.7-0.3 5.3-0.5 10.5-0.7 15.8-1 22-1.9 44-2.3 66-0.6 32.8-0.6 65.8 0.2 98.7 0.8 32.6 1.8 65.3 3.7 97.9 2 32.8 4.9 65.6 8.5 98.3 1.2 11 2.5 22 4 33zm21.8 234.6c12.7 6.1 26.1 10.9 39.5 15.3 3.4 1.1 6.8 2.2 10.3 3.2 0.3 0.1 3.7 1.3 4.1 0.8 0.3-0.4-1.2-1.1-1.5-1.2-6.3-3.4-12.9-6.2-19.1-9.7q1.1 0.7 2.3 1.3-2.6-1.3-5-2.8 0.4 0.3 0.8 0.5c-11.8-6.7-23.5-14.2-34.3-22.5-4.6-3.5-8.7-7.5-11.6-12.4-3.1-5.1-5.2-10.7-7.2-16.3q-2.9-8.6-4.9-17.5-1-4.6-1.8-9.3c-0.1-0.6-0.6-4.9-1.8-3.1-0.6 0.9-0.8 2.3-1 3.4q-0.9 4.4-1.5 8.9c-0.8 6.1-1 12.1-0.3 18.2 0.6 6 1.9 12.2 4.1 17.8 2.1 5.4 5.8 9.6 10.2 13.5 5.5 4.9 12 8.7 18.7 11.9zm320.2-74c-0.6 0.4-0.6 1.7-0.7 2.4q-0.3 1.5-0.6 3c-0.4 2.3-0.8 4.6-1.3 6.9-1.7 7.8-4 15.6-7 23.1-2.7 7.1-6 13.8-11.6 19.1-5.6 5.4-12.3 9.8-18.8 14.1-6.8 4.5-13.7 8.8-20.7 12.8q0.4-0.2 0.8-0.5-2.4 1.5-5 2.8 1.2-0.6 2.3-1.3c-5.7 3.2-11.6 5.7-17.4 8.7-0.8 0.5-1.8 0.9-2.6 1.5-0.8 0.5-0.7 0.8 0.3 0.7 3-0.6 5.9-1.6 8.9-2.5 10.9-3.4 21.6-7.3 32.2-11.6 9.7-4 19.6-8.3 27.9-14.8 4-3.2 8-6.7 10.6-11.1 2.9-4.7 4.3-10.3 5.4-15.7 2.2-11.3 1.6-22.7-0.8-33.9-0.2-0.7-0.7-4.6-1.9-3.7zm1.3-241.8c2.8-31.6 4.6-63.3 5.9-95.1 1.2-32.1 1.9-64.3 2-96.5 0.2-31.9-0.2-63.9-1.5-95.8-0.5-13.5-1.4-26.9-2.2-40.4q-0.1-1.6-0.2-3.2c0-0.3 0.1-1-0.1-1.2-0.2-0.2-1.9 0-2.2 0q-0.9 0-1.8 0-1.1 0-2.2 0c-0.4 0-1.7-0.2-2 0-0.3 0.3-0.4 2.5-0.5 3q-0.3 1.5-0.6 2.9-0.4 2.7-0.9 5.4-1.1 5.9-2 11.8-1.9 11.6-3.5 23.3c-4.4 31.7-8.1 63.5-11.3 95.4-3.1 31.5-5.5 63-7.9 94.6-2.5 32-4.2 64.2-4.9 96.3q-1 48.1-1.9 96.2c-0.7 31.8-1.1 63.6-1.6 95.4 3.1-5.4 6.1-10.8 8.8-16.4 2.6-5.5 4.6-11.3 6.4-17.2 6.6-21.8 10.6-44.4 13.9-66.9 3.3-22.8 5.9-45.6 8.1-68.5 0.8-7.7 1.5-15.4 2.2-23.1zm-69.2-642.2c-0.5 0.4-0.5 1.2-0.4 1.8 0.1 0.4 0.5 2.2 0.9 2.2-0.2 0.1 2 3.4 2.3 4 4.7 7.3 9.6 14.3 15.6 20.6 3 3.1 6.3 5.9 9.5 8.8 3.1 2.9 5.9 6.1 8.1 9.8 4.9 7.6 8.2 16.2 11.7 24.5 1.8 4.3 3.6 8.5 5.6 12.8 1.7 3.6 3.5 7.3 6 10.5 2.1 2.7 5.8 6.5 9.6 5.5 3.6-0.9 5.5-5.4 6.4-8.6 2.5-8.5 2.1-18 1.5-26.8-0.3-4.3-0.8-8.7-2.1-12.9-1.1-3.7-3-7.2-5.2-10.4-4.7-6.7-10.7-12.5-16.9-17.8-13.1-11.2-28.9-20-45.9-23.9-1.7-0.3-5.1-1.5-6.7-0.1z"/>
	</g>
</svg>